<svg fill="none" height="427" viewBox="0 0 652 427" width="652" xmlns="http://www.w3.org/2000/svg"><circle cx="273.5" cy="176.5" fill="#edc261" opacity=".2" r="176.5"/><path d="m425.012 266.947c-64.626-1.956-60.709-164.299 0-179.947 64.626 0 109.668 58.678 105.751 93.885-3.917 35.208-41.125 88.018-105.751 86.062z" fill="#fe93cf" opacity=".5"/><path d="m390.214 398.223c-276 38-396.00012-31-390.000118-70 33.000018-124 177.000118 32 375.000118-75s267-38 274-16 17 123-259 161z" fill="#276ce5" opacity=".1"/><path clip-rule="evenodd" d="m171.955 191.127c-4.996-5.235-9.121-11.818-10.568-19.461-4.169-22.02 20.562-19.169 27.846-8.489 7.285 10.68 13.598 38.79 8.16 41.263-2.169.986-7.671-.525-13.767-4.094l10.41 29.185-18.975 1.589z" fill="#b28b67" fill-rule="evenodd"/><path clip-rule="evenodd" d="m179.396 173.191c3.795 13.149 7.405 19.569 10.828 19.26 5.136-.463 8.614-4.734 10.868-4.937 1.642-.149 1.83 2.33 1.152 4.241-.559 1.576-4.607 3.413-4.081 5.731.526 2.319 3.575.214 3.887 1.589.516 2.275 2.093 6.497-1.226 6.796-3.359.303-13.321-.284-16.316-6.065-1.933-3.732-4.42-11.6-7.461-23.606-.211-.011-.421-.007-.632.012-2.878.26-4.582 3.246-3.806 6.669.394 1.738 1.352 3.255 2.576 4.293-.747 2.133-1.619 4.37-2.673 6.692-6.759-3.627-13.832-15.391-10.791-27.579.275-5.861 3.142-9.237 7.023-11.035 3.021-2.001 6.513-2.511 9.727-1.764 5.984.069 11.688 1.719 13.453 2.845 1.494 6.587.864 8.638-8.34 9.292-1.931 1.618-3.109 4.21-4.188 7.566z" fill="#191847" fill-rule="evenodd"/><path clip-rule="evenodd" d="m276.387 304.344c5.842-7.922 20.444-2.678 20.436 3.881-.024 17.221-15.739 98.976-16.559 104.138-.821 5.161-9.611 6.85-10.123.401-.814-10.263-2.327-45.837-.813-62.387.442-4.835.908-9.507 1.378-13.885-8.259 14.838-20.819 35.81-37.678 62.916l-9.37-4.281c7.358-24.243 13.392-41.358 18.101-51.345 8.062-17.1 15.623-31.744 18.805-36.902 4.203-6.814 11.02-5.909 15.823-2.536z" fill="#b28b67" fill-rule="evenodd"/><path clip-rule="evenodd" d="m224.327 381.664 32.161-76.187c7.705-12.394 29.307 2.522 26.679 9.71-5.965 16.319-36.302 69.153-38.079 74.015z" fill="#1f28cf" fill-rule="evenodd"/><path clip-rule="evenodd" d="m297.636 314.174c0 21.595-9.465 72.356-9.472 77.111l-22.93-.773c4.008-44.134 5.699-66.35 5.071-66.649-1.412-.673-57.887 7.816-74.825 8.457-24.424.924-34.528-14.06-35.348-42.495h47.311c40.455 4.829 67.044 8.188 79.766 10.076 8.17 1.213 10.427 8.324 10.427 14.273z" fill="#2b44ff" fill-rule="evenodd"/><path clip-rule="evenodd" d="m268.897 400.603c-.91 2.429-1.366 4.248-1.366 5.454 0 1.467.245 3.608.734 6.423h45.89c1.193-3.942.504-6.071-2.065-6.385-2.569-.315-4.704-.598-6.403-.852l-21.33-9.508c-.41-.183-.891.001-1.074.411-.003.007-.006.014-.009.022l-1.371 3.325c-2.379 1.11-4.311 1.665-5.798 1.665-1.209 0-2.877-.488-5.006-1.464-.817-.374-1.783-.016-2.158.801-.016.035-.031.071-.044.108z" fill="#e4e4e4" fill-rule="evenodd"/><path clip-rule="evenodd" d="m218.524 393.736c-1.808 2.627-2.891 4.66-3.25 6.099-.436 1.75-.781 4.375-1.035 7.878 2.029.506 20.272 5.054 54.726 13.645 2.594-4.347 2.406-7.09-.564-8.229-2.971-1.139-5.432-2.112-7.383-2.92l-22.609-17.681c-.435-.34-1.064-.264-1.404.171-.006.008-.011.015-.017.023l-2.624 3.559c-3.166.616-5.636.703-7.41.261-1.441-.36-3.285-1.438-5.534-3.234-.863-.69-2.121-.549-2.811.314-.03.037-.058.075-.085.114z" fill="#e4e4e4" fill-rule="evenodd"/><path d="m308.62 412.48h-37.427c-1.573 0-2.848 1.275-2.848 2.848s1.275 2.847 2.848 2.847h37.427c1.573 0 2.848-1.274 2.848-2.847s-1.275-2.848-2.848-2.848z" fill="#2f3676"/><path clip-rule="evenodd" d="m157.691 294.503h87.059c4.493 0 8.136 3.643 8.136 8.136v39.868h-100.077c-1.797 0-3.254-1.457-3.254-3.254v-36.614c0-4.493 3.642-8.136 8.136-8.136z" fill="#2f3676" fill-rule="evenodd"/><path clip-rule="evenodd" d="m244.75 294.503h1.785c3.985 0 7.383 2.886 8.029 6.818l17.849 108.718h-8.694" fill="#2f3676" fill-rule="evenodd"/><path d="m268.345 426.312c8.089 0 14.646-6.557 14.646-14.646 0-8.088-6.557-14.645-14.646-14.645-8.088 0-14.645 6.557-14.645 14.645 0 8.089 6.557 14.646 14.645 14.646z" fill="#191847"/><path clip-rule="evenodd" d="m160.132 424.685c-34.151 0-61.8365-27.685-61.8365-61.837 0-34.151 27.6855-61.836 61.8365-61.836s61.836 27.685 61.836 61.836c0 34.152-27.685 61.837-61.836 61.837zm0-11.391c27.86 0 50.445-22.585 50.445-50.446 0-27.86-22.585-50.445-50.445-50.445s-50.446 22.585-50.446 50.445c0 27.861 22.586 50.446 50.446 50.446z" fill="#191847" fill-rule="evenodd"/><path d="m163.386 309.148h-6.509v107.4h6.509z" fill="#191847"/><path d="m199.254 326.027-2.301-2.301c-.636-.635-1.666-.635-2.302 0l-73.641 73.642c-.636.635-.636 1.666 0 2.301l2.301 2.301c.635.636 1.666.636 2.301 0l73.642-73.641c.635-.636.635-1.666 0-2.302z" fill="#191847"/><path d="m213.832 364.476v-3.255c0-.899-.729-1.627-1.627-1.627h-104.146c-.898 0-1.627.728-1.627 1.627v3.255c0 .898.729 1.627 1.627 1.627h104.146c.898 0 1.627-.729 1.627-1.627z" fill="#191847"/><path d="m196.953 401.971 2.301-2.302c.635-.635.635-1.666 0-2.301l-73.642-73.642c-.635-.635-1.666-.635-2.301 0l-2.302 2.301c-.635.636-.635 1.666 0 2.302l73.642 73.642c.636.635 1.666.635 2.302 0z" fill="#191847"/><g clip-rule="evenodd" fill-rule="evenodd"><path d="m238.084 252.172 28.931-7.158c5.148-4.384 10.09-7.466 14.826-9.247 1.406-.161 3.791.266 1.144 3.813-2.647 3.548-5.268 7.448-4.291 9.152.978 1.705 3.96.807 5.06 3.46.734 1.769-4.271 2.461-15.015 2.076l-21.869 13.224zm-92.382 15.564 16.637-1.238c-7.813 49.529-11.864 75.459-12.153 77.789-.652 5.242 4.748 12.722 7.242 16.774-4.589 3.124-6.215-6.978-11.974-2.9-5.256 3.722-8.515 9.971-16.48 5.532-.979-.545-2.407-2.779-.555-4.758 4.612-4.931 10.959-13.425 11.486-16.097.719-3.645 2.652-28.679 5.797-75.102z" fill="#997659"/><path d="m174.082 209.395 12.512-1.693c14.194 29.906 37.601 45.705 71.782 31.345l19.275 38.298c-32.361 12.29-67.988 3.298-89.421-37.106-5.549-10.459-10.923-21.429-14.148-30.844z" fill="#afb9c5"/><path d="m166.798 203.567 19.696 3.561c8.128 37.879 23.513 61.234 34.72 88.667l-50.272 4.004c1.357 9.679 3.044 19.605 4.997 29.782l-37.641 2.997c-2.993-54.375 6.097-97.351 27.268-128.927l1.219-.097z" fill="#c5cfd6"/><path d="m167.194 245.847c3.15 22.875 7.016 40.198 11.599 51.967l-8.537.786c-2.246-18.503-3.407-36.074-3.062-52.753z" fill="#000" fill-opacity=".1"/><path d="m450.332 122.093c-8.516.5-13.694-10.97-19.674-17.08-4.279-4.371-9.943-2.66-12.836-8.9623-7.274-15.8468 2.471-27.8728 17.825-28.7741 15.354-.9014 27.483 8.4319 32.387 23.2449 4.905 14.8125-2.348 30.6695-17.702 31.5715z" fill="#191847"/><path d="m444.256 111.367c2.158-4.688 3.125-10.345 1.541-16.5432-4.562-17.859-23.555-12.8769-25.603-3.6341-2.047 9.2433 2.975 32.1503 8.268 33.5043 2.111.539 6.021-1.262 9.67-4.755l2.092 24.21 15.934-.839z" fill="#b28b67"/><path d="m437.352 100.71c.579-.431 1.284-.698 2.074-.744 2.532-.1487 4.993 2.017 5.497 4.838.205 1.151.053 2.233-.371 3.121 1.451 1.983 2.577 4.09 3.214 6.286 3.765-.221 14.598-17.3122-1.826-31.8294s-32.3 8.5159-26.128 9.4424c3.548.5327 11.097 3.8582 17.54 8.886z" fill="#191847"/><path d="m467.386 220.058-31.083 107.108-14.62 80.419h-14.673l14.647-187.527z" fill="#784931"/><path d="m481.355 220.058c-2.169 55.642-1.314 85.991-.828 91.046.485 5.056 3.241 38.913 22.019 98.178h-15.262c-24.869-56.855-33.55-90.712-36.402-98.178-2.853-7.465-11.277-37.814-23.575-91.046z" fill="#915b3c"/><path d="m468.053 220.058c-8.085 36.856-22.069 95.688-41.951 176.496h-21.462c-1.585-82.941 5.158-137.531 16.836-176.496z" fill="#2f3676"/><path d="m481.463 220.058c-2.124 55.642 3.381 110.46 20.432 177.362h-22.899c-24.914-56.006-42.771-110.553-54.975-177.362z" fill="#5c63ab"/><path d="m504.721 420.313-.842-13.577c-4.93 1.442-11.106.876-18.526-1.697-7.979 5.652-18.023 9.511-30.133 11.578-.924.157-1.545 1.034-1.387 1.958.01.06.023.119.04.177l1.164 4.106h30.316 17.684z" fill="#191847"/><path d="m424.959 420.313-.842-13.577c-4.931 1.442-11.106.876-18.526-1.697-7.979 5.652-18.024 9.511-30.133 11.578-.924.157-1.545 1.034-1.388 1.958.011.06.024.119.04.177l1.165 4.106h30.316 17.684z" fill="#191847"/><path d="m396.025 208.904-21.87 24.428c-6.65 2.95-12.036 6.286-16.156 10.011-.897 1.272-1.799 3.742 2.768 2.807 4.568-.934 9.433-1.686 10.421.015s-1.409 4.146.355 6.391c1.175 1.497 4.474-2.975 9.896-13.415l23.463-14.954zm100.194-10.779-17.056 2.041c17.986 36.891 27.628 56.455 28.923 58.69 2.916 5.028.477 13.478-.395 17.969 6.117 2.15 3.503-8.121 11.247-5.268 7.068 2.603 13.131 8.097 19.542 2.123.788-.735 1.323-3.22-1.451-4.795-6.913-3.924-17.153-11.004-18.843-13.528-2.304-3.442-9.627-22.519-21.967-57.232z" fill="#915b3c"/><path d="m434.594 131.935-7.088-.895c-22.074 25.739-25.815 72.931-53.606 99.436l9.046 9.823c53.363-10.563 58.593-68.165 51.648-108.364z" fill="#e87613"/><path d="m484.56 222.415c-26.904 3.082-46.693 5.35-59.369 6.802-2.713.311-3.059-4.113-3.099-6.361-.467-25.946 11.82-55.379 4.713-91.573l16.538-4.955c19.149 23.767 30.185 54.466 41.217 96.087z" fill="#dde3e9"/><path d="m470.63 147.471c2.301-1.076 3.886-3.15 4.753-6.221 3.739-13.238.164-19.877-6.881-21.381s-12.024 3.845-22.546 5.06c-.572.066-1.088.167-1.549.303l-5.226.95c-3.923 59.564-.598 98.617 9.977 117.161l46.131-5.328c4.128 6.844 7.917 12.565 11.367 17.165l12.57-1.452c-7.187-43.104-23.386-78.523-48.596-106.257z" fill="#ff9b21"/><path d="m478.246 208.268c1.216 13.847.782 24.048-1.301 30.602l17.263-1.983c-4.855-8.008-10.176-17.547-15.962-28.619z" fill="#000" fill-opacity=".1"/></g></svg>