<svg fill="none" height="20" viewBox="0 0 108 20" width="108" xmlns="http://www.w3.org/2000/svg"><g fill="#276ce5"><path clip-rule="evenodd" d="m65.4079 0c.3167 0 1.1937.389769 1.1937.803898 0 .576462-.2401.934662-.4723 1.281192l-.0393.05864c-.1083.15648-.1809.31295-.259.48119-.08.17212-.1658.35698-.3012.56631-.366.5868-.7614 1.18667-1.1604 1.79199-1.1414 1.73175-2.3122 3.50813-2.9079 5.15078l-.3897 1.0718c-1.4617 4.0926-1.8514 5.8709-1.8514 6.7479 0 .596.09.922.1477 1.1309.0271.0984.0472.1709.0472.2333 0 .0731-.0244.0974-.0975.1705-.0867.0868-.1467.1625-.1979.2271-.1499.1895-.2251.2845-.6791.2845-.2192 0-.8526-.3167-.8769-.4629-.0975-.5602-.1462-1.0718-.1462-1.5834 0-1.3736.3227-2.5106.584-3.4311l.0494-.1742c.1378-.4826.4585-1.1357.6344-1.4939.0727-.148.1207-.2459.1207-.2601 0-.0244 0-.0487-.0487-.0487s-.0974.0487-.2436.2192c-.2002.2328-.3999.4668-.5996.7009l-.0146.0171c-1.7399 2.0395-3.486 4.0861-5.6221 5.3722-.2436.1461-.5359.1705-.7308.1705-.4872 0-1.6322-.5847-1.7296-.7552-.268-.4628-.4141-.9013-.4141-1.3885 0-.6821.2679-1.486.8526-2.6066 1.1693-2.2168 3.0938-4.117 5.1401-5.48115.3654-.2436 1.1206-.46285 1.7539-.46285.268 0 .5116.04872.6821.12181.123.05673.2789.1098.4408.1649.2553.08684.5253.17871.7042.29794.1218 0 .1705 0 .1948-.02436 1.4569-1.58292 2.4224-3.27863 3.3782-4.9574.7064-1.24065 1.4076-2.47205 2.2979-3.641864.1461-.1948834.2436-.292326.5602-.292326zm-7.235 10.0122c0 .2945-.111.4166-.2802.6027-.0687.0756-.147.1618-.2314.2743-1.5834 2.1193-3.3861 4.3118-5.4811 5.9439-.1166.0907-.2124.1331-.2986.1713-.076.0337-.1445.064-.213.1211-.0974.073-.1462.0974-.2436.0974-.1218 0-.1705-.3167-.1705-.5603 0-.0731.0487-.2436.073-.3167.9988-2.6796 3.3131-5.2619 5.6761-6.45552.1948-.09745.3654-.12181.609-.12181.3897 0 .5603.09745.5603.24363z" fill-rule="evenodd"/><path clip-rule="evenodd" d="m11.084 2.19245c.2435 0 .5115.17052.5846.31669l5.5055 16.17536c.0731.1462-.0244.3167-.2193.3167h-4.8233c-.2193 0-.4142-.1218-.5116-.3167l-.7308-2.5578h-4.57982l-.73082 2.5578c-.09744.1949-.29233.3167-.51157.3167h-4.823376c-.1948854 0-.2923281-.1705-.2192537-.3167l5.5054797-16.17536c.07309-.14617.34105-.31669.58465-.31669zm-2.48482 5.82217-1.31547 4.62848h2.63093z" fill-rule="evenodd"/><path d="m17.4177 17.5639c-.1218-.0974-.1705-.2436-.0975-.3897l1.4617-3.0938c.0974-.2436.2923-.3167.4628-.1949 1.2181.7795 2.6553 1.3155 3.5567 1.3155.6821 0 1.1449-.3411 1.1449-.8526 0-.826-1.0005-1.2206-2.2393-1.7092-2.0129-.7939-4.6547-1.8359-4.6547-5.37976 0-3.26431 2.4604-5.4324 6.1632-5.4324 1.8514 0 4.0195.73082 5.4568 1.80268.1218.09744.1705.24361.0974.38977l-1.6809 2.97198c-.1218.21925-.2923.29233-.4628.19489-1.1206-.63338-2.3874-1.04751-3.2156-1.04751-.7065 0-1.1937.36541-1.1937.90135 0 .66403.8869.97708 2.0244 1.37862 2.034.71801 4.8696 1.71898 4.8696 5.51538 0 3.2643-2.5091 5.4324-6.2606 5.4324-1.8271 0-3.9952-.7308-5.4324-1.8027z"/><path d="m44.4822 2.48478-4.8234 7.72232 5.1888 8.5018c.1219.1705.0244.2923-.1705.2923h-5.6516c-.1706 0-.4142-.1218-.5116-.2923l-3.0207-6.0901v6.0414c0 .1705-.1462.341-.3654.341h-4.3118c-.1706 0-.3411-.1705-.3411-.341v-16.10234c0-.19489.1705-.36541.3411-.36541h4.3118c.2192 0 .3654.17052.3654.36541v5.45675l2.9233-5.52983c.0974-.17053.341-.29233.5603-.29233h5.3349c.1949 0 .268.1218.1705.29233z"/><path clip-rule="evenodd" d="m72.6674 7.91718c.1218.1218.3167.34104.3654.4872.0974.24361.3167.46286.5846.46286.1219 0 .4873.02436.6821.31668.0488.07308.0488.09744.0488.14617 0 .09744-.0488.19488-.0975.26796-1.0718 1.46165-2.363 3.28865-2.8258 5.16445-.1705.6821-.341 1.4129-.341 2.1681 0 .6333.1461 1.2667.5115 1.827.0244.0487.0487.0975.0487.1462s-.0974.2923-.5115.341c-.0566.0095-.1169.0262-.178.0432-.0966.0268-.1953.0543-.2849.0543-.3654 0-.9013-.1706-1.0475-.4872-.3167-.7065-.4141-1.413-.4141-2.0951 0-.5552.0562-.9276.0833-1.1066.0085-.0563.0141-.0939.0141-.1114 0-.0974 0-.1218-.0974-.1218-.0975 0-.3167.1705-.5847.4385l-1.3154 1.218c-1.2668 1.1937-2.0463 1.5348-2.8989 1.8271-.1462.0487-.2924.0974-.3898.0974-.268 0-.5603-.1705-1.7052-1.0962-.1218-.0974-.536-.5116-.536-1.4373 0-.8039.268-1.827 1.4617-3.6053 1.4267-2.1281 2.7575-3.10386 3.4917-3.64228l.0162-.01184c1.1936-.87697 2.4604-1.51035 3.8977-1.92448.1705-.04872.3654-.07308.5359-.07308.5603 0 1.0475.26797 1.486.70646zm-1.1937.80389c.4141 0 .5603.31669.5603.48721 0 .14617-.0487.29233-.1218.36541-.268.26797-.5359.60901-.7065.92571-.8812 1.6415-2.4243 2.9398-4.0554 4.3123-.6685.5625-1.3517 1.1374-2.0103 1.7535-.4385.4141-.9988.6821-1.1937.6821-.4385 0-.5359-.3654-.5359-.6578 0-.7064.8039-2.1437 1.827-3.3861 1.3886-1.6809 3.1912-3.0207 5.4811-4.23872.3167-.17052.6821-.24361.7552-.24361z" fill-rule="evenodd"/><path d="m76.5163 8.06334c.3411 0 .7309.14616.804.26797.2435.41412.341.77953.3654 1.19366.0243.34105-.0244.65773-.1462.99883-.0322.1286-.0549.2101-.0703.2651-.0194.0695-.0272.0974-.0272.1246 0 .0731.0244.0731.0731.0731.0487.0244.1218 0 .3167-.1705 1.3398-1.02316 2.5092-1.70526 3.3861-1.99758.0731-.02436.2193-.04873.2924-.04873.6821 0 1.3642.19489 1.7783.6821.1218.09744.1705.31669.1461.41413.0488.70648-.6333 1.07188-.8282 1.07188-.1859 0-.378-.063-.5669-.125-.1824-.0598-.3618-.1186-.5293-.1186-.1178-.0236-.1673-.0016-.3686.088l-.0212.0094c-2.6553 1.2424-5.3837 3.4836-6.1876 7.1864-.1218.4628-.3898.8526-.5603.9744-.1218.1462-.341.2192-.4385.2192-.3299-.0206-.5028-.2332-.6515-.4163l-.0008-.0009c-.0267-.0328-.0526-.0647-.0785-.0943-.2436-.2436-.4385-.6334-.4628-.9257 0-.4641.3211-.9204.655-1.3949.262-.3724.5319-.7559.6604-1.163.1188-.3609.2402-.7208.3618-1.081l.001-.0029.0011-.0033c.5012-1.4849 1.0037-2.9736 1.317-4.54007.0122-.10954.0244-.19476.0335-.2587.0091-.06376.0152-.10675.0152-.13107 0-.0698-.0444-.15072-.0935-.2401-.0537-.09777-.113-.20565-.1257-.32019 0-.19488.3898-.53593.95-.53593z"/><path clip-rule="evenodd" d="m86.3824 16.0049c-1.1937.9013-2.3387 1.5347-3.4592 1.5347-.2193 0-.4142-.1949-.4142-.5116 0-.609.5603-2.2168 1.4129-3.7272.8283-1.4616 1.9489-2.8989 2.972-3.92199.1949-.19489.2436-.24361.3898-.24361.1218 0 .1949.14616.1949.24361 0 .18402-.1195.41148-.2456.65159-.141.2685-.2903.5529-.2903.81 0 .1949.073.3898.2679.536l.6334.4628c.1462.1218.3167.1705.4872.1705.3167 0 .4629-.1705.4629-.3654 0-.6023.3768-1.3505.6239-1.84096.1026-.2038.1829-.36308.2043-.44889.0244-.09745.0244-.12181.0244-.17053 0-.02507-.0058-.04441-.0133-.06981-.0144-.04866-.0355-.11956-.0355-.2956 0-.19488 0-.2436-.0974-.34104-.6334-.63338-1.7052-1.02315-2.5335-1.02315-.1949 0-.2436 0-.3898.07308-2.0462 1.02315-3.8002 3.9951-5.0669 6.5286-.1297.2592-.203.5748-.2521.7861-.0155.0667-.0286.1231-.0403.164-.0287.1027-.0589.2061-.0891.3099-.1491.5113-.3006 1.0312-.3006 1.5171 0 .3898.0974.7552.2923 1.145.1218.2436 1.1206 1.1936 2.4604 1.1936 1.0231 0 2.2412-.7064 3.6053-1.8026.8984-.7313 1.6713-1.3371 2.3496-1.6945.0519.4004.1342.8283.2327 1.1098.2679.8039.7308 1.4129 1.218 1.6809.1705.0974 1.0231.4872 1.5591.6821.3897.1461.6334.1705.9257.1705.3167 0 .4385 0 .877-.2436 1.888-1.0434 2.9463-1.8714 3.6852-2.5648-.0045.0754-.0068.1508-.0068.2262 0 .2923.0244.5603.0731.8282.2436 1.3399 2.2652 1.8758 2.4362 1.8758 1.469 0 2.4-1.1356 3.332-2.2716.257-.3146.515-.6291.785-.9196.068-.0749.136-.1365.199-.1933.162-.1463.288-.2607.288-.4888 0-.3898-.633-.5603-.828-.5603-.682 0-1.391.7668-2.083 1.5154-.446.4815-.884.9555-1.303 1.213-.122.0731-.268.0974-.415.0974-.219 0-.414-.0731-.487-.2923-.0972-.3167-.1215-.609-.1215-.9014 0-.8266.3185-1.5663.6435-2.3197.096-.2234.193-.4481.282-.6766 1.047-2.7675 2.688-5.25081 4.359-7.77917.623-.94348 1.251-1.89324 1.853-2.86638.146-.24361.244-.53594.244-.85262 0-.24361-.049-.46285-.195-.6821-.122-.17052-.39-.26796-.634-.26796-.125 0-.235.01075-.352.02216-.131.01287-.271.02656-.451.02656-.683 0-.951.70438-1.201 1.36296-.098.25795-.193.50886-.31.70768-1.851 3.16687-4.019 7.06457-5.0668 9.79297-.0734.1902-.1464.3754-.2176.5562-.0367.093-.0728.1848-.1084.2755-.5771.384-1.0893.8267-1.6085 1.2754-.7226.6244-1.4587 1.2605-2.4017 1.7662-1.0962.5846-1.4616.6821-1.8757.6821-.2436 0-.4872-.0487-.7552-.1949-.2193-.1218-.5847-.6334-.5847-1.0231 0-.0731.0244-.1218.1462-.1949 2.0706-1.145 3.9708-3.2643 5.6516-5.1645.3411-.3897.536-.6577.7796-1.1449.2923-.58465.5603-1.12058.5603-1.75396 0-.97442-.5116-1.41291-.7796-1.51035-.4872-.17053-.8282-.26797-1.486-.26797-1.1936 0-2.1924.65774-2.6065 1.09623-1.8514 1.9732-3.508 4.11695-4.1901 6.60175-.0293.1027-.052.1967-.0695.2837-.0596-.0252-.1184-.0401-.1741-.0401-.6821 0-1.9001.8526-2.9719 1.6565zm9.2083-5.7004c-1.0963 1.3155-2.2899 2.6553-3.7272 3.7515-.0731.0488-.1218.0731-.1705.0731-.0244 0-.0488-.0243-.0488-.1218.536-2.1681 2.2412-4.16564 3.8246-5.57855.1505-.13542.1987-.15932.2768-.19797.0483-.02393.108-.05352.2105-.11872l.0243-.01628c.1407-.0942.3031-.20297.4872-.20297.1462 0 .1462.09745.1462.29233 0 .44076-.1988.74898-.4071 1.07191l-.0314.04868c-.1373.2112-.1967.34458-.2498.46364-.0694.15559-.1278.28673-.3348.53513z" fill-rule="evenodd"/></g></svg>