<svg height="51" viewBox="0 0 60 51" width="60" xmlns="http://www.w3.org/2000/svg"><path d="m78.7988521 37.6-11.9998977-9c-.5189956-.39-1.1519902-.6-1.7999847-.6h-4.7579594l-2.1209819-2.121c-.5639952-.564-1.3259887-.879-2.120982-.879h-11.9998977c-.7949932 0-1.5599867.315-2.1209819.879l-2.1209819 2.121h-4.7579595c-.6479945 0-1.2809891.21-1.7999847.6l-11.9998977 9c-1.1609901.87-1.5299869 2.445-.8819925 3.741l5.9999489 12c.7439937 1.482 2.5409783 2.088 4.0259657 1.341l1.6589858-.828v19.146c0 1.656 1.3439886 3 2.9999745 3h29.9997443c1.6559859 0 2.9999745-1.344 2.9999745-3v-19.146l1.6589858.828c1.4879873.744 3.284972.138 4.0259657-1.341l5.9999489-12c.6419945-1.293.2729976-2.871-.8879925-3.741z" transform="translate(-20 -25)"/></svg>