<svg height="55" viewBox="0 0 60 55" width="60" xmlns="http://www.w3.org/2000/svg"><path d="m37.1336898 67.2588235c4.4473797 0 8.0374332-3.5982941 8.0374332-8.0558823 0-4.4575883-3.5900535-8.0558824-8.0374332-8.0558824-4.4473796 0-8.0374331 3.5982941-8.0374331 8.0558824 0 4.4575882 3.5900535 8.0558823 8.0374331 8.0558823zm-2.0534759-41.0235294h-11.8716578v51.7647059h-3.2085561v-55h3.2085561 19.8930482 8.0213904v3.2352941c-.5130348 4.3137255-2.1827652 6.4705883-5.0091912 6.4705883-.024092 0-3.7019552 0-11.0335896 0zm34.2032086 24.9117647c5.9209091 0 10.7165775 4.8066765 10.7165775 10.7411765v16.1117647h-53.5828877v-8.0558824h21.4331551v-18.7970588zm-35.5961452-17.4633069 2.6909216 1.7475049-3.5241349 5.4266919-2.6909216-1.7475049zm6.8474821 2.2574246h3.2085561v6.4705882h-3.2085561zm7.3651166-.5099197 2.6909216-1.7475049 3.5241349 5.4266919-2.6909216 1.7475049z" transform="translate(-20 -23)"/></svg>