<svg height="60" viewBox="0 0 34 60" width="34" xmlns="http://www.w3.org/2000/svg"><path d="m49.302554 46.3333333c-7.5815324-1.9666666-10.0196463-4-10.0196463-7.1666666 0-3.6333334 3.3732809-6.1666667 9.0176817-6.1666667 5.9449902 0 8.1493124 2.8333333 8.3497053 7h7.3811395c-.2337918-5.7333333-3.740668-11-10.7210216-12.7v-7.3h-10.0196464v7.2c-6.4793713 1.4-11.6895874 5.6-11.6895874 12.0333333 0 7.7 6.3791748 11.5333334 15.697446 13.7666667 8.3497053 2 10.0196463 4.9333333 10.0196463 8.0333333 0 2.3-1.6365422 5.9666667-9.0176817 5.9666667-6.8801572 0-9.5854617-3.0666667-9.9528487-7h-7.3477407c.4007859 7.3 5.8781925 11.4 12.2907662 12.7666667v7.2333333h10.0196464v-7.1666667c6.5127701-1.2333333 11.6895874-5 11.6895874-11.8333333 0-9.4666667-8.1159136-12.7-15.697446-14.6666667z" transform="translate(-31 -20)"/></svg>