<svg height="38" viewBox="0 0 60 38" width="60" xmlns="http://www.w3.org/2000/svg"><path d="m62.6404747 49.4473693c-4.2477721 0-7.6766966-3.3810314-7.6766966-7.5694734 0-4.1884419 3.4289245-7.5694733 7.6766966-7.5694733s7.6511076 3.3810314 7.6511076 7.5694733c0 4.188442-3.4033355 7.5694734-7.6511076 7.5694734zm-22.3505983-1.7810526c-4.956916 0-8.958282-3.9454774-8.958282-8.8331583 0-4.887681 4.001366-8.8331584 8.958282-8.8331584 4.9569161 0 8.9284211 3.9454774 8.9284211 8.8331584 0 4.8876809-3.971505 8.8331583-8.9284211 8.8331583zm-20.2898764 20.3133914c1.3476554-7.3758303 2.2272769-13.690682 8.5045756-16.0317921 6.2772988-2.3411101 19.7797238 1.3786924 32.3072742 1.2633182 12.5275504-.1153741 15.393376-3.3916528 15.692071 1.0546011s-2.5859461 6.4023969-9.1390085 6.9543377c-4.3687083.3679605-9.7795172.5519408-16.2324267.5519408l-.7214543 6.2075943c-13.0278777 0-20.70489 0-23.0310368 0-.4084875 0 .7472408-4.2933397.4535464-4.2933397-.8740641 0-2.1278913 4.2933397-2.6712347 4.2933397-2.7840054 0-5.1459047.0202919-5.1623062 0zm33.9459808.0202919c0-1.9012581 0-2.912763 0-3.0345147 15.3667208-.1654276 23.3662196-2.0048436 23.9984966-5.5182481l2.0555226 8.5527628z" transform="translate(-20 -30)"/></svg>