<svg height="58" viewBox="0 0 57 58" width="57" xmlns="http://www.w3.org/2000/svg"><path d="m50 29h20v4h9v30h-13-2v-4h-34v14h1.297c.388 0 .703.315.703.703v1.594c0 .388-.315.703-.703.703h2c.388 0 .703.315.703.703v2.297h-12v-2.297c0-.388.315-.703.703-.703h2c-.388 0-.703-.315-.703-.703v-1.594c0-.388.315-.703.703-.703h1.297v-44h4v18h20zm20 29.826c0 .096-.078.174-.174.174h.023c.028 0 .049.01675.058.0385-.009-.02175-.03-.0385-.058-.0385h-.023c.096 0 .174-.078.174-.174zm-6 .174h5.826zm6-2h9zm-38-32c0 2.209-1.791 4-4 4s-4-1.791-4-4 1.791-4 4-4 4 1.791 4 4zm3.993 6.279.929 1.883 2.078.302-1.504 1.466.355 2.07-1.858-.977-1.859.977.355-2.07-1.504-1.466 2.078-.302zm8.014-.279.93 1.883 2.078.302-1.504 1.466.355 2.07-1.859-.978-1.858.978.355-2.07-1.504-1.466 2.078-.302zm-8.014 7.279.929 1.883 2.078.302-1.504 1.466.355 2.07-1.858-.977-1.859.977.355-2.07-1.504-1.466 2.078-.302zm8.014-.279.93 1.883 2.078.302-1.504 1.466.355 2.07-1.859-.978-1.858.978.355-2.07-1.504-1.466 2.078-.302z" fill="#fff" transform="translate(-22 -21)"/></svg>