<svg height="60" viewBox="0 0 51 60" width="51" xmlns="http://www.w3.org/2000/svg"><path d="m25 62.2105263c0 2.7789474 1.243125 5.2736842 3.1875 7.0105263v5.6210527c0 1.7368421 1.434375 3.1578947 3.1875 3.1578947h3.1875c1.753125 0 3.1875-1.4210526 3.1875-3.1578947v-3.1578948h25.5v3.1578948c0 1.7368421 1.434375 3.1578947 3.1875 3.1578947h3.1875c1.753125 0 3.1875-1.4210526 3.1875-3.1578947v-5.6210527c1.944375-1.7368421 3.1875-4.2315789 3.1875-7.0105263v-31.5789474c0-11.0526315-11.41125-12.6315789-25.5-12.6315789s-25.5 1.5789474-25.5 12.6315789zm11.15625 3.1578948c-2.645625 0-4.78125-2.1157895-4.78125-4.7368422 0-2.6210526 2.135625-4.7368421 4.78125-4.7368421s4.78125 2.1157895 4.78125 4.7368421c0 2.6210527-2.135625 4.7368422-4.78125 4.7368422zm28.6875 0c-2.645625 0-4.78125-2.1157895-4.78125-4.7368422 0-2.6210526 2.135625-4.7368421 4.78125-4.7368421s4.78125 2.1157895 4.78125 4.7368421c0 2.6210527-2.135625 4.7368422-4.78125 4.7368422zm4.78125-18.9473685h-38.25v-15.7894737h38.25z" transform="translate(-25 -18)"/></svg>