<svg fill="none" height="12" viewBox="0 0 14 12" width="14" xmlns="http://www.w3.org/2000/svg"><g fill="#276ce5"><path d="m12.5021 4.82657c-.5146-2.5232-2.75011-4.426668-5.42216-4.426668-.86375 0-1.69099.193667-2.45957.574914-1.07678.535074-1.96378 1.422064-2.4983 2.498854l.99102.49247c.42773-.86154 1.13876-1.57202 1.99975-1.99975.6142-.30544 1.27599-.45982 1.9671-.45982 2.0584 0 3.78816 1.41377 4.28056 3.32h-.9606l1.66 1.66 1.66-1.66z"/><path d="m7.07994 10.3599c-2.0584 0-3.78812-1.41432-4.28058-3.32h.96058l-1.66-1.66-1.659999 1.66h1.217889c.5146 2.52265 2.75007 4.4267 5.42211 4.4267 2.11595 0 4.01606-1.1781 4.95736-3.07435l-.9911-.49247c-.753 1.5178-2.27306 2.46012-3.96626 2.46012z"/><path d="m9.03598 3.97721-.29604.29604h-.55333l-.55333.55333.55333.55333v1.10667l-.55333 1.10667h-.55334l-.55333-1.10667-.55333-.55333v-.55334l1.10666-.55333v-.55333l-.55333-.55334v-.498c-1.26271.25675-2.21333 1.37227-2.21333 2.71134 0 1.5272 1.23836 2.76666 2.76666 2.76666 1.52776 0 2.76667-1.23946 2.76667-2.76666 0-.76416-.30987-1.45582-.81063-1.95604z"/></g></svg>