<svg fill="none" height="41" viewBox="0 0 44 41" width="44" xmlns="http://www.w3.org/2000/svg"><path clip-rule="evenodd" d="m0 40.3333v-37.96075-2.37255h2.35294 8.70586 5.8824 5.8823v2.37255s-.5643 4.7451-3.6734 4.7451h-8.0913v-4.7451h-8.70586v37.96075zm20.4235-19.6921h15.7177c4.342 0 7.8588 3.5249 7.8588 7.8768v11.8153h-39.29412v-5.9076h15.71762zm-1.9647 5.9076c0 3.2689-2.6327 5.9077-5.8941 5.9077s-5.89411-2.6388-5.89411-5.9077 2.63271-5.9076 5.89411-5.9076 5.8941 2.6387 5.8941 5.9076zm-6.4481-17.43254-1.9734-1.28151-2.58433 3.97955 1.97334 1.2815zm3.0481.37394h2.353v4.7451h-2.353zm7.3745-1.65545-1.9734 1.28151 2.5844 3.97954 1.9733-1.2815z" fill="#ffc369" fill-rule="evenodd"/></svg>