<svg height="250" viewBox="0 0 250 250" width="250" xmlns="http://www.w3.org/2000/svg"><path d="m167.134916 125.506928c-14.159241 0-25.588989-11.388737-25.588989-25.497173 0-14.1084362 11.429748-25.4971736 25.588989-25.4971736 14.15924 0 25.503692 11.3887374 25.503692 25.4971736 0 14.108436-11.344452 25.497173-25.503692 25.497173zm-74.5019945-5.999335c-16.5230535 0-29.8609401-13.290029-29.8609401-29.7537964 0-16.4637675 13.3378866-29.7537966 29.8609401-29.7537966s29.7614035 13.2900291 29.7614035 29.7537966c0 16.4637674-13.23835 29.7537964-29.7614035 29.7537964zm-67.6329215 68.424055c4.4921846-24.844902 7.4242562-46.115981 28.3485855-54.001826 20.9243293-7.885844 65.9324125 4.644017 107.6909135 4.255388 41.758502-.388629 51.311254-11.424515 52.306904 3.552341.99565 14.976855-8.619821 21.565968-30.463362 23.425137-14.562361 1.239446-32.598391 1.859169-54.108089 1.859169l-2.404848 20.909791c-43.4262588 0-69.0162996 0-76.7701222 0-1.3616251 0 2.4908024-14.461775 1.5118211-14.461775-2.9135469 0-7.092971 14.461775-8.9041157 14.461775-9.280018 0-17.1530154.068352-17.2076872 0zm113.153269.068352c0-6.404238 0-9.811412 0-10.221523 51.222403-.55723 77.887399-6.753158 79.994989-18.587783l6.851742 28.809306z"/></svg>