<svg height="250" viewBox="0 0 250 250" width="250" xmlns="http://www.w3.org/2000/svg"><g transform="translate(22 15)"><path d="m166.330851 107.081633-1.571277-6.959184 2.020213-.6734694c1.122341-.4489796 1.795745-1.122449 2.244681-2.0204082s.448936-2.0204081.224468-3.1428571l-5.387234-14.367347h.224468c.897873-.4489795 1.795745-1.3469387 2.244681-2.2448979.448936-1.122449.224468-2.244898-.224468-3.1428572l-8.529787-16.1632653c-.448936-.8979591-1.346809-1.5714285-2.469149-2.0204081-1.122341-.2244898-2.244681-.2244898-3.142553.4489796l-.448937.2244898-2.469148-4.9387755c-.224469-.6734694-.897873-1.3469388-1.571277-1.5714286l-9.652128-5.8367347c-1.346808-.8979592-3.142553-.6734694-4.489361.2244898l-5.387234 4.2653061-.224469-.2244898c-.673404-.8979592-1.571276-1.5714286-2.693617-1.7959184l-11.223404-2.2448979c-.673404-.2244898-1.571276 0-2.244681.2244898l-17.0595742 6.9591837c-.6734042.2244897-1.3468085.8979591-1.7957447 1.5714285l-17.2840425 28.5102041c-.4489362.6734694-.4489362 1.3469388-.6734043 2.0204082 0 3.8163265-.224468 13.4693877-.4489361 17.5102045l-5.8361702 6.734693c-.2244681 0-.6734043 0-.8978724 0h-8.9787234c-1.1223404 0-2.2446808.44898-2.9180851 1.346939l-4.7138298 5.387755c-.4489362-.448979-1.1223404-.897959-1.7957447-.897959-1.1223404-.22449-2.2446808 0-3.1425532.67347l-13.243617 9.428571c-1.3468085.897959-2.0202127 2.693877-1.5712766 4.265306l.4489362 1.571429-8.5297872 3.142857c-1.1223405.448979-1.7957447 1.122449-2.2446809 2.244898l-2.9180851 7.408163c-.4489362 1.346939-.4489362 2.693878.4489362 3.816327l2.2446808 3.142857c-.2244681.224489-.6734042.673469-.8978723.897959l-6.9585106 12.122449c-.8978724 1.571428-.6734043 3.367347.4489361 4.714286l-11.22340423 11.224489c-1.5712766 1.571429-1.5712766 4.040817 0 5.612245.67340425.67347 1.79574468 1.122449 2.69361702 1.122449s2.02021276-.448979 2.69361702-1.122449l11.44787229-11.22449 14.1414894 13.020409c.6734043.673469 1.7957447 1.122449 2.693617 1.122449.4489362 0 1.1223405-.22449 1.5712766-.44898l10.9989362-4.938776c.6734043-.224489 1.1223404-.673469 1.5712766-1.346938l1.3468085.897959c.6734043.448979 1.3468085.673469 2.0202128.673469.6734042 0 1.1223404-.22449 1.7957447-.448979l5.6117021-2.918368c.8978723-.448979 1.5712766-1.122449 1.7957447-2.020408l2.4691489-5.836735c.2244681-.448979.2244681-.897959.2244681-1.571428l10.1010638-7.857143c.6734043-.44898 1.1223404-1.122449 1.3468085-1.795918l6.0606383-3.367347c1.5712766-.897959 2.469149-2.918368 1.7957447-4.714286l2.693617.673469v4.714286l-42.8734042 50.285714c-1.3468085 1.571429-1.1223405 4.040817.4489361 5.612245.6734043.67347 1.5712766.89796 2.469149.89796 1.1223404 0 2.2446808-.44898 2.9180851-1.346939l4.7138298-5.612245 1.3468085 1.795918c.4489361.67347.8978723.897959 1.5712766 1.346939l6.0606383 2.469388.2244681 2.020408c.224468 2.020408 2.0202127 3.367347 3.8159574 3.367347h.6734043c2.2446808-.22449 3.5914893-2.244898 3.3670212-4.489796l-.6734042-4.265306c-.2244681-1.346939-1.1223404-2.469388-2.469149-3.142857l-7.1829787-2.918368-1.7957447-2.244898 13.019149-15.265306 4.4893617 14.142857c.6734042 2.020409 2.9180851 3.142858 4.9382978 2.469388 2.0202128-.673469 3.1425532-2.918367 2.469149-4.938775l-6.0606383-18.632653 15.2638298-17.959184c.2244681-.22449.2244681-.44898.4489361-.67347 0 0 0-.224489.2244681-.224489 0-.22449.2244681-.22449.2244681-.44898v-.22449c0-.224489 0-.224489 0-.448979v-.22449-.22449-9.204082c0-1.795918-1.3468085-3.367346-3.1425532-3.816326l-15.0393617-3.367347v-6.061224l17.9574468-7.857143 17.9574472 12.122449 4.489361 21.55102-10.998936 30.306123c-.448936.897959-.224468 2.020408 0 2.918367l8.754255 20.877551c.673405 1.571428 2.020213 2.469388 3.59149 2.469388.448936 0 1.12234 0 1.571276-.22449 2.020213-.897959 2.918086-3.142857 2.020213-5.163265l-8.080851-19.530613 10.774468-29.857143c.224468-.673469.224468-1.346938.224468-2.244898l-4.264893-19.979591 12.794681-1.795919c.897872-.22449 1.571276-.448979 2.24468-1.122449l17.059575-16.163265 5.162766-1.346939c.897872-.22449 1.571276-.673469 2.020213-1.346939 0 0 0-.224489.224468-.224489 0 0 .224468-.22449.224468-.22449l4.938298-8.530612c1.346808-1.346939 1.346808-2.469388 1.12234-3.367347zm-13.692553-41.5306126 4.489362 8.755102-15.937234 6.9591837c.673404-.6734694 1.12234-1.7959183.897872-2.9183673l-.448936-6.7346939zm-16.161702-12.7959184 6.285106 3.8163266 1.571277 3.3673469-6.734043 3.5918367-4.938298-7.8571428zm-99.439362 125.714286-15.4882978-14.367347 4.2648936-7.632653 11.2234042 15.040816c.2244681.44898.6734043.673469 1.1223405.897959l4.9382978 3.142857zm21.1-10.77551-1.7957446 4.489795-2.2446809 1.122449-10.9989362-6.959183-16.8351063-22.67347 1.5712766-3.591836 6.2851063-2.244898 1.3468085 4.489796c.2244681.673469.4489362 1.122449.8978724 1.571428l21.7734042 23.795919c0-.22449 0 0 0 0zm9.4276596-10.102041-4.4893617 3.591836-20.2021276-22-2.9180852-10.10204 7.4074469-5.387755 20.4265957 33.224489s-.2244681.44898-.2244681.67347zm4.2648936-28.285715c-1.3468085.67347-2.4691489 2.020409-2.4691489 3.591837v11.22449l-13.9170213-22.44898 4.9382979-5.612245h4.7138298zm6.2851064 20.653062-3.8159574 2.244898-2.2446809-3.591837c.2244681 0 .2244681.22449.4489362.22449zm53.8723404-18.632653-14.365957 2.020408-19.7531919-13.469388c-1.1223404-.673469-2.4691489-.897959-3.8159574-.44898l-14.8148937 6.510205-5.8361702-11.22449 7.6319149-8.979592c.4489362-.67347.8978724-1.346939.8978724-2.020408.4489361-3.367347.4489361-14.591837.6734042-18.4081636l16.1617021-26.4897959 14.8148936-6.0612245 8.978723 1.5714286 11.447873 17.9591837.224468 3.5918367-8.080851 3.367347-9.42766-7.6326531c-1.571276-1.122449-3.591489-1.122449-5.162766.2244898-1.346808 1.3469388-1.795744 3.3673469-.673404 5.1632653l1.795745 2.6938776-.897873 8.9795918-5.387234 8.3061224c-1.12234 1.7959184-.673404 4.2653062 1.122341 5.3877552 1.795744 1.122449 4.264893.673469 5.387234-1.122449l1.795744-2.6938776c.448937.4489796.673405.6734694 1.346809.8979592.448936.2244898.897872.2244898 1.346809.2244898l5.162765 10.9999996c.673405 1.346939 2.020213 2.244898 3.59149 2.244898.448936 0 .897872 0 1.346808-.224489l2.020213-.67347 3.142553 9.428572c.673405 1.795918 2.469149 2.918367 4.489362 2.693877l3.815957-.673469zm-5.611702-43.7755106-6.509575 2.9183674-.224468-1.122449.448937-4.9387755 2.918085 2.4693877c.897872.6734694 2.020212 1.122449 3.367021.6734694zm28.731915 25.3673466-16.610638 2.918368-1.571277-4.489796 20.426596-8.530612.897872 4.489795zm-27.160638-8.755102-2.469149-5.3877548 31.65-14.1428571 3.367021 8.5306122z"/><path d="m207.632979 83.0612245-20.202128-11.2244898 14.590426-27.8367347c.673404-1.3469388.673404-2.9183673-.224468-4.2653061-.897873-1.3469388-2.469149-1.7959184-3.815958-1.5714286l-29.629787 4.2653061 4.71383-35.69387752c.224468-1.79591837-.673405-3.36734694-2.244681-4.04081633-1.571277-.89795918-3.367022-.44897959-4.71383.67346939l-24.242553 22.67346936-15.26383-20.6530612c-.897872-1.34693877-2.693617-1.79591837-4.264894-1.57142857-1.571276.44897959-2.693617 1.57142857-3.142553 3.36734694l-4.489362 27.61224493c-.448936 2.2448979 1.122341 4.2653061 3.367022 4.7142857s4.264893-1.122449 4.71383-3.367347l2.918085-18.1836734 12.345744 16.6122449c.673405.8979592 1.795745 1.5714285 2.918085 1.5714285 1.122341 0 2.244681-.2244898 3.142554-1.1224489l19.304255-18.1836735-4.040426 29.6326531c-.224468 1.3469387.224469 2.4693877 1.122341 3.3673469s2.244681 1.3469388 3.367021 1.122449l27.160638-3.8163266-12.79468 24.244898c-1.122341 2.0204082-.224469 4.2653061 1.571276 5.3877551l17.732979 9.877551-19.528724 12.122449c-1.571276.8979592-2.24468 2.9183678-1.571276 4.7142858l7.856383 21.55102-17.284043-3.816326c-2.244681-.44898-4.264893.897959-4.938298 2.918367-.448936 2.244898.897873 4.265306 2.918086 4.938776l24.242553 5.836734h.897872c1.122341 0 2.244681-.448979 2.918085-1.346938.897873-1.122449 1.346809-2.693878.897873-4.040817l-9.203192-25.591836 22.671277-13.9183678c1.12234-.6734694 2.020212-2.0204082 2.020212-3.5918368.224468-1.3469387-.673404-2.6938775-1.795744-3.3673469z"/></g></svg>