<svg fill="none" height="34" viewBox="0 0 34 34" width="34" xmlns="http://www.w3.org/2000/svg"><g clip-rule="evenodd" fill="#000" fill-opacity=".38" fill-rule="evenodd"><path d="m33.0375 15.6875-15-15.000048c-.65-.650001-1.7-.650001-2.35 0l-15.000049 15.000048c-.65.65-.65 1.7 0 2.35l15.000049 15c.65.65 1.7.65 2.35 0l15-15c.65-.6334.65-1.6834 0-2.35zm-3.5391 1.175-12.6359-12.636-12.636 12.636 12.636 12.6359z"/><path d="m10.6 21.4v-6.1867c0-.8507.701-1.5467 1.5578-1.5467h7.7895v-3.86664l5.4527 5.41334-5.4527 5.4133v-3.8666h-6.2316v4.64z"/></g></svg>