<svg fill="none" height="24" viewBox="0 0 24 24" width="24" xmlns="http://www.w3.org/2000/svg"><g clip-rule="evenodd" fill="#276ce5" fill-rule="evenodd"><path d="m23.2265 11.0812-10.5-10.49996c-.455-.455-1.19-.455-1.645 0l-10.500015 10.49996c-.455001.455-.455001 1.19 0 1.645l10.500015 10.5001c.455.455 1.19.455 1.645 0l10.5-10.5001c.455-.4433.455-1.1783 0-1.645zm-2.4773.8225-8.8452-8.84513-8.84518 8.84513 8.84518 8.8452z"/><path d="m7.52023 15.08v-4.3307c0-.5954.49074-1.08264 1.09053-1.08264h5.45264v-2.70667l3.8168 3.78931-3.8168 3.7894v-2.7067h-4.36211v3.248z"/></g></svg>