<svg fill="none" height="42" viewBox="0 0 42 42" width="42" xmlns="http://www.w3.org/2000/svg"><g fill="#3d94bc"><path d="m41.2229 19.6105-18.75-18.75005c-.8146-.8145843-2.1312-.8145843-2.9458 0l-18.750029 18.75005c-.595834.5958-.77500041 1.4916-.452083 2.2708.322916.7792 1.083332 1.2854 1.925002 1.2854h4.16667v16.6667c0 1.15.93333 2.0833 2.08333 2.0833h25.00001c1.15 0 2.0833-.9333 2.0833-2.0833v-16.6667h4.1667c.8417 0 1.6021-.5062 1.925-1.2854s.1438-1.675-.4521-2.2708zm-7.7229-.6105c-1.15 0-2.0833.9334-2.0833 2.0834v16.6667h-20.8334v-16.6667c0-1.15-.9333-2.0834-2.08331-2.0834h-1.22083l13.72084-13.7208 13.7208 13.7208z"/><path d="m18.9167 14.8334h4.1666v12.5h-4.1666z"/><path d="m22.8415 29.6586c1.017 1.017 1.017 2.6659 0 3.6829-1.017 1.0169-2.6659 1.0169-3.6829 0-1.017-1.017-1.017-2.6659 0-3.6829s2.6659-1.017 3.6829 0z"/></g></svg>