<svg fill="none" height="50" viewBox="0 0 51 50" width="51" xmlns="http://www.w3.org/2000/svg"><g fill="#63b867"><path d="m21.4521 4.16667c5.25 0 9.9333 2.44584 12.9875 6.25003h5.025c-3.6083-6.2167-10.3229-10.4167-18.0125-10.4167-7.6938 0-14.40834 4.2-18.01876 10.4167h5.025c3.05836-3.80419 7.74166-6.25003 12.99376-6.25003z"/><path d="m12.5021 22.9167c0 3.4521 2.8062 6.25 6.2521 6.25 3.4437 0 6.25-2.7979 6.25-6.25v6.25h7.2917c2.8729 0 5.2083-2.3354 5.2083-5.2083 0-1.1792-.4042-2.2521-1.0667-3.1251.6604-.8666 1.0667-1.9458 1.0667-3.125 0-2.8666-2.3354-5.2083-5.2083-5.2083h-7.2917v6.25c0-3.4458-2.8063-6.25-6.25-6.25-3.4459 0-6.2521 2.8063-6.2521 6.25v-6.25h-4.16668v10.4167c0 1.1562-.93333 2.0854-2.08542 2.0854-1.14791 0-2.08333-.9292-2.08333-2.0854h-4.16667c0 3.4521 2.80417 6.25 6.25 6.25 3.44584 0 6.2521-2.7979 6.2521-6.25zm16.6688-6.2521h3.125c.577 0 1.0416.4729 1.0416 1.0437 0 .575-.4646 1.0417-1.0416 1.0417h-3.125zm0 6.2521h3.125c.577 0 1.0416.4708 1.0416 1.0417 0 .575-.4646 1.0437-1.0416 1.0437h-3.125zm-12.5021-4.1667c0-1.15.9333-2.0875 2.0854-2.0875 1.1479 0 2.0833.9375 2.0833 2.0875v4.1667c0 1.1562-.9354 2.0854-2.0833 2.0854-1.1521 0-2.0854-.9292-2.0854-2.0854z"/><path d="m42.7167 22.9167h2.0813c.575 0 1.0437.4708 1.0437 1.0417 0 .575-.4687 1.0437-1.0437 1.0437h-7.2938v4.1646h7.2938c2.8729 0 5.2104-2.3354 5.2104-5.2083 0-2.8626-2.3375-5.2084-5.2104-5.2084h-2.0813c-.5771 0-1.0458-.4667-1.0458-1.0417 0-.5708.4687-1.0437 1.0458-1.0437h7.2917v-4.1646h-7.2917c-2.8729 0-5.2125 2.3417-5.2125 5.2083 0 2.8709 2.3396 5.2084 5.2125 5.2084z"/><path d="m50.0084 46.4438-12.4667-12.4667c.7042-.8646 1.3625-1.7604 1.925-2.7271h-5.025c-3.0583 3.8063-7.7396 6.25-12.9875 6.25s-9.9334-2.4416-12.98961-6.25h-5.02709c3.60626 6.2146 10.3229 10.4167 18.0125 10.4167 4.9938 0 9.5604-1.7917 13.1479-4.7375l12.4626 12.4583z"/></g></svg>