<svg width="32" height="34" viewBox="0 0 32 34" fill="none" xmlns="http://www.w3.org/2000/svg">
<path d="M26.9999 33.6667H3.66659C1.82825 33.6667 0.333252 32.1717 0.333252 30.3333V7C0.333252 5.16333 1.82825 3.66666 3.66659 3.66666H15.3333V7H3.66659V30.3333H26.9999V15.3333H30.3333V30.3333C30.3333 32.1717 28.8383 33.6667 26.9999 33.6667Z" fill="black" fill-opacity="0.38"/>
<path d="M13.3466 14.275L18.0599 18.9867L12.1683 20.165L13.3466 14.275Z" fill="black" fill-opacity="0.38"/>
<path d="M31.0233 6.02333C32.3249 4.72166 32.3249 2.61166 31.0233 1.30999C29.7216 0.00832331 27.6116 0.00832331 26.3099 1.30999L15.7033 11.9167L20.4183 16.6317L31.0233 6.02333Z" fill="black" fill-opacity="0.38"/>
</svg>
