<svg height="250" viewBox="0 0 250 250" width="250" xmlns="http://www.w3.org/2000/svg"><g fill="none" fill-rule="evenodd"><path d="m0 0h250v250h-250z"/><path d="m220.997844 82-40-30c-1.73-1.3-3.84-2-6-2h-15.86l-7.07-7.07c-1.88-1.88-4.42-2.93-7.07-2.93h-40c-2.65 0-5.1999999 1.05-7.0699999 2.93l-7.07 7.07h-15.86c-2.16 0-4.27.7-6 2l-40 30c-3.87 2.9-5.1 8.15-2.94 12.47l20 40c2.48 4.94 8.47 6.96 13.42 4.47l5.53-2.76v63.82c0 5.52 4.48 10 10 10h99.9999999c5.52 0 10-4.48 10-10v-63.82l5.53 2.76c4.96 2.48 10.95.46 13.42-4.47l20-40c2.14-4.31.91-9.57-2.96-12.47z" fill="#000" fill-rule="nonzero"/></g></svg>