<svg height="250" viewBox="0 0 250 250" width="250" xmlns="http://www.w3.org/2000/svg"><g fill="none" fill-rule="evenodd"><path d="m0 0h250v250h-250z"/><path d="m82.1122995 180.456471c14.8245989 0 26.7914435-11.907083 26.7914435-26.657647 0-14.750565-11.9668446-26.657648-26.7914435-26.657648-14.824599 0-26.7914439 11.907083-26.7914439 26.657648 0 14.750564 11.9668449 26.657647 26.7914439 26.657647zm-6.8449198-135.7505886h-39.5721925v171.2941176h-10.6951872v-182h5.3475936 58.28877 40.1069524v10.7058824c-1.710116 14.2745098-7.275884 21.4117647-16.697304 21.4117647-.080307 0-12.3398511 0-36.7786323 0zm114.0106953 82.4352936c19.736364 0 35.721925 15.90573 35.721925 35.54353v53.315294h-178.6096257v-26.657647h71.4438507v-62.201177zm-118.6965341-57.8088517 8.9697387 5.8250164-11.6616829 17.9574169-8.9697387-5.8250165zm22.867657 7.4912051h10.6951871v21.4117647h-10.6951871zm24.5931051-1.6661887 8.969739-5.8250164 11.661683 17.9574168-8.969739 5.8250165z" fill="#000" fill-rule="nonzero"/></g></svg>