<svg fill="none" height="42" viewBox="0 0 46 42" width="46" xmlns="http://www.w3.org/2000/svg"><g fill="#ff7269"><path d="m22.9896 37.0626c-2.1625-1.8063-5.1208-4.5479-7.9479-7.7292h-5.46041c5.33961 6.7083 11.68121 11.7063 12.14171 12.0625.3729.2917.825.4375 1.277.4375.4521 0 .9042-.1458 1.2771-.4375.4104-.3187 5.5167-4.3417 10.4084-9.9792h-5.6521c-2.4313 2.5042-4.6979 4.5105-6.0438 5.6459z"/><path d="m6.55004 14.7501c-.12708-.7042-.21666-1.4021-.21666-2.0834 0-5.06245 3.27083-8.33329 8.33332-8.33329 2.6854 0 4.9 1.95417 5.8063 4.16667h5.0541c.9063-2.2125 3.1209-4.16667 5.8063-4.16667 5.0625 0 8.3333 3.27084 8.3333 8.33329 0 1.3605-.2771 2.7584-.7292 4.1667h4.2959c.3604-1.3917.6-2.7854.6-4.1667 0-7.36037-5.1396-12.499952-12.5-12.499952-3.3209 0-6.3959 1.743752-8.3334 4.333332-1.9375-2.58958-5.0125-4.333332-8.3333-4.333332-7.36041 0-12.49999 5.139582-12.49999 12.499952 0 .6917.07916 1.3875.175 2.0834z"/><path d="m39.0355 21.0001-5.1855 3.4562-8.5937-10.7416-8.5063 8.5062-6.25-6.25-5.02913 5.0292h-5.387496v4.1666h7.112496l3.30413-3.3021 6.25 6.25 8.1605-8.1604 8.0729 10.0896 7.3146-4.8771h5.6187v-4.1666z"/></g></svg>