<svg fill="none" height="46" viewBox="0 0 46 46" width="46" xmlns="http://www.w3.org/2000/svg"><g fill="#008fff"><path d="m45.6188 15.7626-6.25-10.41668c-.375-.62917-1.0542-1.0125-1.7854-1.0125h-2.0833v-2.08334c0-1.15-.9334-2.083332-2.0834-2.083332h-2.0833c-1.15 0-2.0834.933332-2.0834 2.083332v2.08334h-12.5v-2.08334c0-1.15-.9333-2.083332-2.0833-2.083332h-2.0833c-1.15 0-2.0834.933332-2.0834 2.083332v2.08334h-2.0833c-.73125 0-1.41042.38333-1.78542 1.0125l-6.250004 10.41668c-.38750078.6437-.3958341 1.4437-.027084 2.0979.36875.6542 1.062498 1.0563 1.812498 1.0563v25c0 1.15.93334 2.0833 2.08334 2.0833h37.50007c1.15 0 2.0833-.9333 2.0833-2.0833v-25c.75 0 1.4437-.4021 1.8125-1.0563.3708-.6542.3604-1.4562-.0271-2.0979zm-36.02293-7.26251h26.80623l3.75 6.25001h-34.30624zm30.07083 33.33331h-12.5v-2.0833c0-2.3-1.8667-4.1667-4.1667-4.1667s-4.1666 1.8667-4.1666 4.1667v2.0833h-12.50004v-22.9166h33.33334z"/><path d="m10.5 21.0001h10.4167v4.1667h-10.4167z"/><path d="m25.0834 21.0001h10.4167v4.1667h-10.4167z"/><path d="m10.5 29.3334h10.4167v4.1667h-10.4167z"/><path d="m25.0834 29.3334h10.4167v4.1667h-10.4167z"/></g></svg>