<svg fill="none" height="42" viewBox="0 0 50 42" width="50" xmlns="http://www.w3.org/2000/svg"><path d="m49.7605 22.1626.0208-.0104-6.8271-13.65211h2.8792v-4.16667h-18.75v-4.166672h-4.1667v4.166672h-18.75003v4.16667h2.87917l-6.825006 13.65211.020833.0104c-.1437503.2792-.241667.5854-.241667.9208 0 5.7438 4.67292 10.4167 10.4167 10.4167 5.7437 0 10.4167-4.6729 10.4167-10.4167 0-.3354-.098-.6416-.2396-.9208l.0208-.0104-6.8271-13.65211h9.1292v29.16671h-6.25v4.1667h16.6667v-4.1667h-6.25v-29.16671h9.1291l-6.825 13.65211.0209.0104c-.1438.2792-.2417.5854-.2417.9208 0 5.7438 4.6729 10.4167 10.4167 10.4167 5.7437 0 10.4166-4.6729 10.4166-10.4167 0-.3354-.0979-.6416-.2395-.9208zm-39.3438-11.0875 4.9625 9.925h-9.92503zm0 18.2583c-2.71669 0-5.03336-1.7416-5.8917-4.1666h11.7833c-.8583 2.425-3.175 4.1666-5.8916 4.1666zm34.1292-8.3333h-9.925l4.9625-9.925zm-4.9625 8.3333c-2.7167 0-5.0334-1.7416-5.8917-4.1666h11.7833c-.8583 2.425-3.175 4.1666-5.8916 4.1666z" fill="#ab84c3"/></svg>