<svg height="250" viewBox="0 0 250 250" width="250" xmlns="http://www.w3.org/2000/svg"><g fill="none" fill-rule="evenodd"><path d="m123.381407 114.488636c-23.6500562-6.145833-31.255581-12.5-31.255581-22.395833 0-11.3541666 10.522712-19.2708333 28.130023-19.2708333 18.544979 0 25.421206 8.8541667 26.046318 21.875h23.024945c-.729297-17.9166667-11.66875-34.375-33.443472-39.6875v-22.8125h-31.255581v22.5c-20.211943 4.375-36.4648453 17.5-36.4648453 37.6041667 0 24.0624996 19.8993868 36.0416666 48.9670773 43.0208336 26.046318 6.25 31.255581 15.416666 31.255581 25.104166 0 7.1875-5.105078 18.645834-28.130023 18.645834-21.4621656 0-29.9011726-9.583334-31.0472106-21.875h-22.9207596c1.2502232 22.8125 18.3366077 35.625 38.3401802 39.895833v22.604167h31.255581v-22.395834c20.316128-3.854166 36.464845-15.625 36.464845-36.979166 0-29.583334-25.317021-39.6875-48.967078-45.833334z" fill="#000" fill-rule="nonzero"/><path d="m0 0h250v250h-250z"/></g></svg>