<svg fill="none" height="23" viewBox="0 0 23 23" width="23" xmlns="http://www.w3.org/2000/svg"><path d="m19.9999 13.5001h-4.6667c-1.2565 0-2.2844.9975-2.3322 2.2423-2.9657-.4713-5.21849-2.73-5.72716-5.74465 1.23784-.05716 2.226-1.08033 2.226-2.331v-4.66667c0-1.288-1.0465-2.333332-2.33333-2.333332h-4.66667c-1.28684 0-2.333336 1.045332-2.333336 2.333332v5.83334c0 7.71988 6.280176 13.99998 13.999996 13.99998h5.8334c1.2868 0 2.3333-1.0453 2.3333-2.3333v-4.6667c0-1.288-1.0453-2.3333-2.3333-2.3333zm-5.8334 7c-6.43299 0-11.66666-5.2337-11.66666-11.66668v-5.83334h4.66667v4.66667h-1.16667c-.31267 0-.6125.12484-.83183.34884-.21934.224-.33834.52383-.33484.8365.08517 5.30951 4.09734 9.31471 9.33333 9.31471.644 0 1.1667-.5215 1.1667-1.1667v-1.1667h4.6667l.0011 4.6667z" fill="#276ce5"/></svg>