<svg height="250" viewBox="0 0 250 250" width="250" xmlns="http://www.w3.org/2000/svg"><path d="m214.357142 229.970553v-210.3718813c0-2.5309477-2.052059-4.583007-4.583007-4.583007-2.530947 0-4.583007 2.0520593-4.583007 4.583007v191.4087943c-9.622524-10.969678-23.276718-16.284444-24.296314-16.667107-10.72408-3.207882-19.29456-6.736886-25.435633-10.494146-2.199754-1.375126-3.987194-2.704377-5.499664-4.125378-.916658-.870503-1.558066-2.383253-1.558066-3.665511v-12.695018c6.461917-5.866384 8.570201-12.970268 9.166014-18.149648.137345-1.099877.183219-2.06213.229094-2.978507 5.407915-2.429128 8.661671-5.866383 9.624203-10.265891 1.283376-5.958132-2.199754-11.457517-4.628882-14.436024 9.016362-27.298878 2.818785-39.8618667-5.17854-45.6991583v-52.2480707c0-2.5309477-2.052059-4.583007-4.583007-4.583007s-4.583007 2.0520593-4.583007 4.583007v48.2681489c-1.07694-.2181851-2.093459-.3804253-2.933191-.4598672-3.345786-3.1620062-12.23683-10.3576407-24.610725-10.3576407-6.004008 0-12.007736 1.6962497-17.87384 5.133505-.761689.453154-1.427434 1.0226728-2.155557 1.5183447v-44.1024907c0-2.5309477-2.0520591-4.583007-4.5830068-4.583007-2.5309478 0-4.583007 2.0520593-4.583007 4.583007v52.4684927c-7.2711601 9.0071303-10.542818 20.7656317-8.8896463 32.6002183.6416879 4.445382 1.7874396 8.75314 3.7125042 13.749021-1.4665957 3.207881-3.5748797 9.441262-1.5583456 15.398276.8249078 2.520878 2.6582224 5.728759 6.7827609 8.157887.1376245 5.407635 1.3748462 16.361649 9.0286686 21.906908v12.465645c0 1.329251-.504063 2.566752-1.3748457 3.39138-1.5583457 1.421001-3.3457858 2.750252-5.4996648 4.079503-6.1872271 3.75726-14.7574277 7.332139-25.7106022 10.63177-.8484045.31441-14.4256745 5.587778-24.0328143 16.549623v-191.3830593c0-2.5309477-2.0520593-4.583007-4.583007-4.583007s-4.583007 2.0520593-4.583007 4.583007v210.8183213c0 .292032.1141274.546022.1661565.82239.0386022.208116.0565043.409517.1230789.6098.1510513.453154.3829428.847006.6593109 1.224074.07133.097344.0892321.221542.1692335.31441.0240562.027973.0618193.038043.0864351.064897.4030832.448678.8800134.814558 1.4305114 1.07638.0226574.011189.0388817.031329.0615392.041399.5784704.26406 1.2092493.429657 1.8867419.429657.0137064 0 .025175-.007832.0388818-.007832h170.1133648c.013706 0 .025175.007832.038881.007832.013707 0 .025176-.007832.038882-.007832h.046434c2.520598 0 4.583007-2.06213 4.583007-4.583007 0-.158884-.071609-.286438-.085316-.438608z"/></svg>