<svg width="34" height="39" viewBox="0 0 34 39" fill="none" xmlns="http://www.w3.org/2000/svg">
<path d="M33.6666 17.3334C33.6666 14.5768 31.4233 12.3334 28.6666 12.3334H25.3333V15.6668H8.66659V12.3334H5.33326C2.57659 12.3334 0.333252 14.5768 0.333252 17.3334V32.3334H5.33326V39.0001H28.6666V32.3334H33.6666V17.3334ZM25.3333 35.6668H8.66659V29.0001H25.3333V35.6668ZM30.3333 29.0001H28.6666V25.6668H5.33326V29.0001H3.66659V17.3334C3.66659 16.4134 4.41492 15.6668 5.33326 15.6668V19.0001H28.6666V15.6668C29.5849 15.6668 30.3333 16.4134 30.3333 17.3334V29.0001Z" fill="black" fill-opacity="0.38"/>
<path d="M8.66659 4.00008H25.3333V10.6668H28.6666V0.666748H5.33326V10.6668H8.66659V4.00008Z" fill="black" fill-opacity="0.38"/>
<path d="M26.5118 21.1549C27.1626 21.8058 27.1626 22.8611 26.5118 23.512C25.8609 24.1628 24.8056 24.1628 24.1548 23.512C23.5039 22.8611 23.5039 21.8058 24.1548 21.1549C24.8056 20.5041 25.8609 20.5041 26.5118 21.1549Z" fill="black" fill-opacity="0.38"/>
</svg>
