<svg fill="none" height="39" viewBox="0 0 34 39" width="34" xmlns="http://www.w3.org/2000/svg"><g fill="#000" fill-opacity=".38"><path d="m33.6666 17.3334c0-2.7566-2.2433-5-5-5h-3.3333v3.3334h-16.66671v-3.3334h-3.33333c-2.75667 0-5.000008 2.2434-5.000008 5v15h5.000008v6.6667h23.33334v-6.6667h5zm-8.3333 18.3334h-16.66671v-6.6667h16.66671zm5-6.6667h-1.6667v-3.3333h-23.33334v3.3333h-1.66667v-11.6667c0-.92.74833-1.6666 1.66667-1.6666v3.3333h23.33334v-3.3333c.9183 0 1.6667.7466 1.6667 1.6666z"/><path d="m8.66659 4.00008h16.66671v6.66672h3.3333v-10.000052h-23.33334v10.000052h3.33333z"/><path d="m26.5118 21.1549c.6508.6509.6508 1.7062 0 2.3571-.6509.6508-1.7062.6508-2.357 0-.6509-.6509-.6509-1.7062 0-2.3571.6508-.6508 1.7061-.6508 2.357 0z"/></g></svg>