<svg height="250" viewBox="0 0 250 250" width="250" xmlns="http://www.w3.org/2000/svg"><path d="m38.2096774 48.4235294c-11.6290322-3.6235294-18.6064516-17.1294118-14.9516129-28.9882353 3.9870968-12.51764704 16.9451613-19.10588233 29.9032258-15.15294116 12.2935484 3.95294118 18.9387097 16.79999996 14.9516129 29.31764706-3.6548387 12.5176471-16.9451613 19.1058824-29.9032258 14.8235294zm-28.90645159 55.9999996c.33225806 0 .66451613-.329411.99677419-.658823 0-.658824.3322581-1.317647.3322581-1.976471 1.3290322-3.9529409 4.3193548-5.9294115 8.6387096-6.2588232.9967742 0 1.9935484 0 2.6580646-.3294118 3.3225806-.3294118 6.3129032-.6588235 9.3032258-1.6470588 5.316129-1.6470588 9.9677419-4.6117647 13.6225806-8.5647059.3322581-.6588235.9967742-.9882353 1.3290323-1.6470588.9967742-.9882353 1.9935484-2.3058824 2.6580645-3.2941177 1.9935484-2.9647059 3.3225806-6.2588235 3.9870968-9.8823529.6645161-3.9529412-1.3290323-7.9058824.332258-11.5294118.9967742-2.9647059 3.9870968-5.2705882 6.9774194-6.2588235 5.9806451-1.9764706 12.6258064.9882353 16.6129032 5.6 7.9741936 9.8823529 13.9548387 21.4117647 18.2741936 33.2705882 3.6548387 9.5529412 6.3129035 19.7647062 6.9774195 29.9764702.664516 9.882353.664516 21.082353-3.987097 29.976471-3.6548387 6.588235-9.3032258 7.905882-16.2806451 8.564706-.3322581.988235-.3322581 1.97647-.3322581 3.294118v10.870588c0 4.611764 0 9.223529-.3322581 13.835294 0 4.282353-.9967742 9.552941-3.3225806 13.505882-1.6612903 2.635294-3.6548387 4.611765-6.9774194 5.6-17.6096774 3.952941-15.616129-28.329412-15.616129-37.223529 0-2.305883 0-4.941177 0-7.247059 0-.988235 0-1.976471-.3322581-2.635294-4.3193548-.329412-7.6419354-.988235-9.9677419-1.647059-1.6612903-.329412-2.9903226-.329412-4.3193548-.658823-2.6580645-.329412-3.9870968-3.294118-2.6580645-5.6 4.9838709-9.882353 8.3064516-21.082353 10.3-30.635295 1.3290322-5.6 1.9935483-10.541176 2.6580645-14.164705-.3322581-.658824-.6645162-1.317648-1.3290323-.988236-4.983871 3.952941-11.2967742 5.6-17.6096774 6.258824-5.6483871.658823-13.2903226 1.97647-17.9419355-.988236-.9967742-.658823-1.6612903-1.317647-2.3258064-2.305882-.6645162 0-1.3290323.658824-1.99354843 1.647059-1.32903226 1.976471-.33225806 4.611765.66451613 6.588235.9967742 1.647059 3.3225806 3.294118 3.3225806 5.270588v68.517648c0 1.97647-1.3290322 3.623529-3.3225806 3.623529-1.99354839.329412-3.98709677-1.317647-3.98709677-3.623529 0 0 0-33.6 0-49.411765 0-8.564706-.33225807-17.129412-2.99032258-25.364706-1.66129033-4.941177.99677419-9.552941 5.98064516-11.858824z" transform="translate(74 20)"/></svg>