<svg fill="none" height="22" viewBox="0 0 22 22" width="22" xmlns="http://www.w3.org/2000/svg"><path clip-rule="evenodd" d="m10.0091 19.5781c-5.28487 0-9.569098-4.2842-9.569098-9.5691 0-5.28483 4.284228-9.569059 9.569098-9.569059 5.2849 0 9.5691 4.284229 9.5691 9.569059 0 2.2113-.7501 4.2475-2.0097 5.8678l3.9915 3.9915-1.6916 1.6916-3.9915-3.9915c-1.6204 1.2596-3.6565 2.0097-5.8678 2.0097zm7.1768-9.5691c0 3.9637-3.2132 7.1768-7.1768 7.1768-3.96365 0-7.17682-3.2131-7.17682-7.1768 0-3.96362 3.21317-7.17679 7.17682-7.17679 3.9636 0 7.1768 3.21317 7.1768 7.17679z" fill="#276ce5" fill-rule="evenodd"/></svg>