<svg height="250" viewBox="0 0 250 250" width="250" xmlns="http://www.w3.org/2000/svg"><g fill="none" fill-rule="evenodd"><path d="m0 0h250v250h-250z"/><path d="m41.6666667 166.666667c0 9.166666 4.0625 17.395833 10.4166666 23.125v18.541666c0 5.729167 4.6875 10.416667 10.4166667 10.416667h10.4166667c5.7291666 0 10.4166666-4.6875 10.4166666-10.416667v-10.416666h83.3333337v10.416666c0 5.729167 4.6875 10.416667 10.416666 10.416667h10.416667c5.729167 0 10.416667-4.6875 10.416667-10.416667v-18.541666c6.354166-5.729167 10.416666-13.958334 10.416666-23.125v-104.166667c0-36.4583333-37.291666-41.6666667-83.333333-41.6666667-46.0416667 0-83.3333333 5.2083334-83.3333333 41.6666667zm36.4583333 10.416666c-8.6458333 0-15.625-6.979166-15.625-15.625 0-8.645833 6.9791667-15.625 15.625-15.625s15.625 6.979167 15.625 15.625c0 8.645834-6.9791667 15.625-15.625 15.625zm93.75 0c-8.645833 0-15.625-6.979166-15.625-15.625 0-8.645833 6.979167-15.625 15.625-15.625s15.625 6.979167 15.625 15.625c0 8.645834-6.979167 15.625-15.625 15.625zm15.625-62.5h-125v-52.083333h125z" fill="#000" fill-rule="nonzero"/></g></svg>