<svg height="250" viewBox="0 0 250 250" width="250" xmlns="http://www.w3.org/2000/svg"><g fill="none" fill-rule="evenodd"><path d="m0 0h250v250h-250zm104.114583 52.0833333h41.666667v20.8333334h-41.666667zm0 0h41.666667v20.8333334h-41.666667z"/><path d="m104.166667 166.666667v-10.416667h-72.8125003l-.1041667 41.666667c0 11.5625 9.2708333 20.833333 20.8333333 20.833333h145.8333337c11.5625 0 20.833333-9.270833 20.833333-20.833333v-41.666667h-72.916667v10.416667zm104.166666-93.7500003h-41.770833v-20.8333334l-20.833333-20.8333333h-41.666667l-20.7291667 20.8333333v20.8333334h-41.6145833c-11.5104167 0-20.8333333 9.3229166-20.8333333 20.8333333v31.25c0 11.510417 9.3229166 20.833333 20.8333333 20.833333h62.5v-20.833333h41.666667v20.833333h62.5c11.510416 0 20.833333-9.322916 20.833333-20.833333v-31.25c-.052083-11.5104167-9.375-20.8333333-20.885417-20.8333333zm-62.552083 0h-41.666667v-20.8333334h41.666667z" fill="#000" fill-rule="nonzero"/></g></svg>