<svg height="250" viewBox="0 0 250 250" width="250" xmlns="http://www.w3.org/2000/svg"><g fill="none" fill-rule="evenodd"><path d="m0 0h250v250h-250z"/><g fill="#000" fill-rule="nonzero"><circle cx="151.042" cy="109.375" r="13.021"/><circle cx="98.958" cy="109.375" r="13.021"/><path d="m239.010417 131.927083c.364583-2.239583.572916-4.583333.572916-6.927083s-.208333-4.6875-.572916-6.927083c-2.65625-15.729167-14.166667-28.4895837-29.21875-33.0208337-5.46875-11.6145833-13.333334-21.9270833-22.864584-30.3125-16.510416-14.5833333-38.177083-23.4895833-61.927083-23.4895833s-45.4166667 8.90625-61.9270833 23.4895833c-9.53125 8.4375-17.34375 18.6979167-22.8645834 30.3125-15.0520833 4.4791667-26.5625 17.2395837-29.21875 33.0208337-.3645833 2.239583-.5729166 4.583333-.5729166 6.927083s.2083333 4.6875.5729166 6.927083c2.65625 15.729167 14.1666667 28.489584 29.21875 33.020834 5.4166667 11.510416 13.1770834 21.71875 22.6041667 30.104166 16.5625 14.6875 38.28125 23.697917 62.1875 23.697917s45.625-9.010417 62.1875-23.697917c9.427083-8.385416 17.1875-18.59375 22.604167-30.104166 15.052083-4.53125 26.5625-17.291667 29.21875-33.020834zm-41.09375 13.90625c-1.041667 0-2.03125-.15625-2.96875-.3125-2.03125 6.927084-5.104167 13.4375-8.958334 19.375-13.072916 19.84375-35.520833 33.020834-60.989583 33.020834s-47.9166667-13.177084-60.9375-33.020834c-3.90625-5.9375-6.9270833-12.447916-8.9583333-19.375-.9895834.15625-1.9791667.3125-3.0208334.3125-11.4583333 0-20.8333333-9.375-20.8333333-20.833333s9.375-20.833333 20.8333333-20.833333c1.0416667 0 2.03125.15625 2.96875.3125 2.03125-6.9270837 5.1041667-13.4375003 8.9583334-19.3750003 13.0729166-19.84375 35.5208333-33.0208334 60.9895833-33.0208334s47.916667 13.1770834 60.9375 33.0208334c3.90625 5.9375 6.927083 12.4479166 8.958333 19.3750003.989584-.15625 1.979167-.3125 3.020834-.3125 11.458333 0 20.833333 9.375 20.833333 20.833333s-9.375 20.833333-20.833333 20.833333zm-119.791667 0c7.9166667 18.385417 25.885417 31.25 46.875 31.25s38.958333-12.864583 46.875-31.25z"/></g></g></svg>