<svg fill="none" height="18" viewBox="0 0 144 18" width="144" xmlns="http://www.w3.org/2000/svg"><g fill="#0025e4"><path clip-rule="evenodd" d="m8.91279 0c2.38171 0 4.62051.935852 6.30451 2.63564 1.6843 1.70004 2.6117 3.96044 2.6117 6.36422 0 2.40404-.9274 4.66414-2.6117 6.36394-1.6842 1.7001-3.9236 2.6362-6.30529 2.6362s-4.62054-.9359-6.30478-2.6359c-3.476524-3.5092-3.476264-9.21903.00052-12.72793 1.68425-1.700059 3.92336-2.63617 6.30504-2.63617zm4.39661 5.68216c1.454 1.96121 1.454 4.67444 0 6.63574l1.3232 1.3353c1.0535-1.3142 1.627-2.9393 1.627-4.65332 0-1.71431-.5735-3.33911-1.6267-4.65363zm-7.17306 6.12024c-1.53095-1.5453-1.53095-4.05948 0-5.6048.74166-.74835 1.72767-1.16083 2.77619-1.16083 1.04853 0 2.03457.41248 2.77617 1.16083 1.531 1.54532 1.531 4.0595 0 5.6048-.7416.7484-1.72764 1.1608-2.77617 1.1608-1.04852 0-2.03453-.4124-2.77619-1.1608zm6.06356-7.24066 1.323-1.33539c-1.3018-1.06339-2.9117-1.64195-4.61009-1.64195-1.69811 0-3.30805.57882-4.61034 1.64222l1.3227 1.33512c.94466-.71588 2.08501-1.10881 3.28738-1.10881 1.20235 0 2.34275.39293 3.28735 1.10881zm-9.00719-.21497 1.32322 1.33565c-1.45402 1.96121-1.45402 4.67448 0 6.63568l-1.32348 1.3359c-2.16377-2.7061-2.16377-6.60136.00026-9.30723zm2.43244 9.09173-1.32296 1.3354c1.30229 1.0634 2.91172 1.642 4.60981 1.642 1.6984 0 3.3083-.5789 4.6106-1.6422l-1.3227-1.3352c-.9447.7159-2.085 1.1088-3.28737 1.1088-1.20236 0-2.3427-.3929-3.28738-1.1088z" fill-rule="evenodd"/><path d="m28.6523 5.46814c-.0701.11207-.1448.19612-.2242.25215-.0747.05604-.1727.08406-.2942.08406-.1073 0-.2241-.03269-.3502-.09806-.1214-.07005-.2615-.14709-.4202-.23114-.1541-.08405-.3315-.15876-.5323-.22414-.2008-.07004-.4296-.10506-.6864-.10506-.4436 0-.7752.09573-.9946.28717-.2148.18678-.3222.44127-.3222.76346 0 .20546.0653.37589.1961.51131.1307.13541.3012.25215.5113.3502.2148.09806.4576.18912.7284.27317.2755.07938.5557.17043.8405.27316.2849.09806.5627.2148.8335.35021.2755.13542.5183.30819.7285.51831.2148.21013.3875.46695.5183.77046.1307.29885.1961.66073.1961 1.0857 0 .4716-.0817.9128-.2452 1.3237-.1634.411-.4015.7705-.7144 1.0787-.3082.3035-.6911.544-1.1487.7214-.4529.1728-.9689.2592-1.5479.2592-.3175 0-.642-.0327-.9736-.0981-.3268-.0654-.6444-.1564-.9525-.2731-.3082-.1215-.5977-.2639-.8686-.4273-.2708-.1634-.5066-.3455-.7074-.5463l.7004-1.1067c.0561-.0794.1284-.1447.2172-.1961.0934-.056.1937-.0841.3011-.0841.1401 0 .2802.0444.4203.1331.1447.0887.3058.1868.4833.2942.1821.1074.3899.2055.6234.2942.2334.0887.5089.1331.8264.1331.4296 0 .7635-.0934 1.0016-.2802.2382-.1915.3573-.4926.3573-.9036 0-.2381-.0654-.4319-.1962-.5813-.1307-.14943-.3035-.27317-.5183-.37123-.2101-.09805-.4506-.18444-.7214-.25915s-.5487-.15643-.8335-.24515c-.2848-.09339-.5627-.20545-.8335-.3362-.2708-.13541-.5136-.31052-.7284-.52531-.2102-.21947-.3806-.4903-.5113-.81249-.1308-.32686-.1962-.72843-.1962-1.20472 0-.3829.0771-.75645.2312-1.12067s.3805-.68875.6794-.97358c.2988-.28484.6654-.51131 1.0996-.67941.4343-.17277.9316-.25915 1.4919-.25915.3129 0 .6164.02568.9106.07704.2988.0467.5813.11907.8475.21713.2662.09339.5136.20779.7424.34321.2335.13074.4413.28017.6234.44827z"/><path d="m33.1519 5.21599v2.58455h3.4881v1.82809h-3.4881v3.97137h-2.3814v-10.2051h6.5699v1.82109z"/><path d="m47.2298 5.46814c-.0701.11207-.1448.19612-.2242.25215-.0747.05604-.1727.08406-.2941.08406-.1074 0-.2242-.03269-.3502-.09806-.1214-.07005-.2615-.14709-.4203-.23114-.1541-.08405-.3315-.15876-.5323-.22414-.2008-.07004-.4296-.10506-.6864-.10506-.4436 0-.7752.09573-.9946.28717-.2148.18678-.3222.44127-.3222.76346 0 .20546.0654.37589.1961.51131.1308.13541.3012.25215.5113.3502.2148.09806.4576.18912.7285.27317.2754.07938.5556.17043.8405.27316.2848.09806.5626.2148.8335.35021.2754.13542.5183.30819.7284.51831.2148.21013.3876.46695.5183.77046.1307.29885.1961.66073.1961 1.0857 0 .4716-.0817.9128-.2451 1.3237-.1635.411-.4016.7705-.7145 1.0787-.3081.3035-.691.544-1.1486.7214-.453.1728-.969.2592-1.548.2592-.3175 0-.642-.0327-.9736-.0981-.3268-.0654-.6443-.1564-.9525-.2731-.3082-.1215-.5977-.2639-.8685-.4273-.2709-.1634-.5067-.3455-.7075-.5463l.7005-1.1067c.056-.0794.1284-.1447.2171-.1961.0934-.056.1938-.0841.3012-.0841.14 0 .2801.0444.4202.1331.1448.0887.3059.1868.4833.2942.1821.1074.3899.2055.6234.2942.2334.0887.5089.1331.8265.1331.4296 0 .7634-.0934 1.0016-.2802.2381-.1915.3572-.4926.3572-.9036 0-.2381-.0654-.4319-.1961-.5813-.1308-.14943-.3035-.27317-.5183-.37123-.2102-.09805-.4506-.18444-.7215-.25915-.2708-.07471-.5486-.15643-.8335-.24515-.2848-.09339-.5626-.20545-.8335-.3362-.2708-.13541-.5136-.31052-.7284-.52531-.2101-.21947-.3806-.4903-.5113-.81249-.1308-.32686-.1961-.72843-.1961-1.20472 0-.3829.077-.75645.2311-1.12067s.3806-.68875.6794-.97358c.2989-.28484.6654-.51131 1.0997-.67941.4342-.17277.9315-.25915 1.4919-.25915.3128 0 .6163.02568.9105.07704.2989.0467.5814.11907.8475.21713.2662.09339.5137.20779.7425.34321.2334.13074.4412.28017.6233.44827z"/><path d="m51.7294 5.21599v2.38143h3.2079v1.75104h-3.2079v2.43044h4.1885v1.8211h-6.5699v-10.2051h6.5699v1.82109z"/><path d="m60.6982 8.19277c.3222 0 .5953-.03969.8195-.11907.2288-.08405.4156-.19845.5603-.3432.1448-.14476.2498-.31286.3152-.5043.0654-.19612.0981-.40625.0981-.63038 0-.44827-.1471-.79848-.4413-1.05063-.2895-.25215-.7401-.37823-1.3518-.37823h-.9526v3.02581zm5.029 5.40723h-2.1433c-.3969 0-.6817-.1494-.8545-.4483l-1.695-2.9627c-.0794-.1261-.1681-.21716-.2662-.2732-.098-.0607-.2381-.09105-.4202-.09105h-.6024v3.77525h-2.3674v-10.2051h3.32c.7378 0 1.3658.07705 1.8841.23114.523.14942.9479.35955 1.2748.63038.3315.27083.572.59069.7214.95957.1494.36889.2241.77046.2241 1.20472 0 .33154-.0443.64439-.133.93857-.0888.29417-.2195.56733-.3923.81949-.1728.24748-.3875.46928-.6444.66539-.2521.19612-.544.35722-.8755.48329.1541.07938.2989.17978.4343.30118.1354.11674.2568.25682.3642.42027z"/><path d="m75.37 3.3949-4.0905 10.2051h-2.1432l-4.0905-10.2051h1.9052c.2054 0 .3712.04903.4972.14709.1261.09339.2218.2148.2872.36422l1.9752 5.46327c.0934.23814.1844.49963.2732.78442.0887.2802.1727.5744.2521.8826.0654-.3082.1378-.6024.2171-.8826.0841-.28479.1728-.54628.2662-.78442l1.9612-5.46327c.0513-.13075.1424-.24748.2731-.35021.1355-.1074.3012-.1611.4973-.1611z"/><path d="m78.556 13.6h-2.3814v-10.2051h2.3814z"/><path d="m87.403 10.9594c.056 0 .112.0117.1681.035.056.0187.1097.0537.1611.1051l.9385.9876c-.4109.537-.9269.9432-1.5479 1.2187-.6164.2709-1.3471.4063-2.1923.4063-.7751 0-1.4709-.1308-2.0873-.3923-.6117-.2661-1.1323-.6303-1.5619-1.0926-.4249-.467-.7518-1.018-.9806-1.653-.2288-.63972-.3432-1.33313-.3432-2.08025 0-.76112.1238-1.4592.3712-2.09425.2475-.63971.5954-1.19071 1.0437-1.65299.4482-.46227.9852-.82182 1.6109-1.07864s1.3145-.38523 2.0663-.38523c.3829 0 .7424.03502 1.0786.10506.3409.06537.6584.15876.9526.28017.2942.11673.565.25915.8125.42725.2474.1681.4669.35021.6584.54633l-.7985 1.07164c-.0514.06537-.1121.12608-.1821.18211-.0701.05136-.1681.07705-.2942.07705-.0841 0-.1634-.01868-.2382-.05604-.0747-.03735-.154-.08171-.2381-.13308-.084-.05603-.1774-.1144-.2802-.1751-.098-.06537-.2171-.12374-.3572-.17511-.1354-.05603-.2965-.10273-.4833-.14008-.1821-.03736-.3969-.05603-.6443-.05603-.3923 0-.7518.07237-1.0787.21713-.3222.14475-.6024.35721-.8405.63738-.2335.2755-.4156.61637-.5463 1.02261-.1261.40157-.1891.86151-.1891 1.37982 0 .52298.07.98759.2101 1.39384.1447.40621.3385.74941.5813 1.02961.2475.2755.5347.4856.8616.6304.3268.1447.677.2171 1.0506.2171.2148 0 .4109-.0093.5883-.028.1775-.0234.3432-.0584.4973-.1051.1541-.0513.2989-.1167.4343-.1961.1354-.084.2732-.1891.4132-.3152.0561-.0467.1168-.084.1822-.112.0653-.0327.133-.0491.2031-.0491z"/><path d="m92.0856 5.21599v2.38143h3.2079v1.75104h-3.2079v2.43044h4.1885v1.8211h-6.5699v-10.2051h6.5699v1.82109z"/><path d="m105.879 8.31184h3.629v4.30756c-.523.3829-1.081.6607-1.674.8335-.589.1728-1.205.2592-1.849.2592-.841 0-1.607-.1308-2.298-.3923-.686-.2661-1.275-.6303-1.765-1.0926-.49-.467-.868-1.018-1.135-1.653-.266-.63972-.399-1.33313-.399-2.08025 0-.76112.126-1.4592.378-2.09425.253-.63971.612-1.19071 1.079-1.65299.472-.46227 1.039-.82182 1.702-1.07864.668-.25682 1.413-.38523 2.234-.38523.425 0 .825.03502 1.198.10506.374.07004.717.16577 1.03.28717.317.12141.607.26616.868.43426.262.1681.495.35021.701.54633l-.687 1.04362c-.107.16343-.247.26383-.42.30118-.168.03736-.35-.00467-.546-.12607-.187-.11207-.365-.20779-.533-.28717-.163-.08406-.331-.15176-.504-.20313-.173-.05136-.355-.08872-.546-.11206-.192-.02335-.406-.03502-.645-.03502-.443 0-.842.07938-1.197.23814-.355.15409-.659.37355-.911.65839-.247.28484-.439.62804-.574 1.02962-.136.3969-.203.8405-.203 1.33079 0 .54166.074 1.02262.224 1.44287.149.42028.359.77508.63 1.06468.276.2895.603.5113.981.6654.383.1494.805.2241 1.267.2241.285 0 .542-.028.771-.0841.233-.056.46-.1307.679-.2241v-1.5479h-1.008c-.15 0-.266-.03972-.35-.1191s-.127-.17977-.127-.30118z"/><path d="m115.358 11.7299c.318 0 .6-.0514.848-.1541.252-.1074.464-.2592.637-.4553s.304-.4342.392-.7144c.094-.2848.141-.60703.141-.96658v-6.04462h2.367v6.04462c0 .62568-.103 1.20008-.308 1.72298-.201.523-.491.9736-.869 1.3519-.378.3782-.838.6724-1.38.8825-.541.2101-1.151.3152-1.828.3152-.681 0-1.293-.1051-1.835-.3152-.541-.2101-1.001-.5043-1.38-.8825-.378-.3783-.667-.8289-.868-1.3519-.201-.5229-.301-1.0973-.301-1.72298v-6.04462h2.367v6.03762c0 .35954.044.68178.133.96658.094.2802.227.5206.399.7214.173.1961.383.3479.631.4553.252.1027.537.1541.854.1541z"/><path d="m123.974 13.6h-2.382v-10.2051h2.382z"/><path d="m135.202 8.49395c0 .73778-.128 1.41952-.385 2.04525-.252.621-.609 1.1603-1.072 1.6179-.462.453-1.02.8079-1.674 1.0647-.649.2521-1.37.3782-2.164.3782h-3.964v-10.2051h3.964c.794 0 1.515.12841 2.164.38523.654.25682 1.212.6117 1.674 1.06464.463.45294.82.99226 1.072 1.61797.257.62104.385 1.29811.385 2.03121zm-2.423 0c0-.5043-.066-.95957-.196-1.36581-.131-.40625-.32-.74945-.568-1.02962-.243-.28484-.541-.50197-.896-.65139-.355-.15409-.759-.23114-1.212-.23114h-1.583v6.56291h1.583c.453 0 .857-.0747 1.212-.2241.355-.1541.653-.3712.896-.6514.248-.2848.437-.6304.568-1.03663.13-.40624.196-.86385.196-1.37282z"/><path d="m138.981 5.21599v2.38143h3.208v1.75104h-3.208v2.43044h4.188v1.8211h-6.57v-10.2051h6.57v1.82109z"/></g></svg>