<svg width="18" height="18" viewBox="0 0 18 18" fill="none" xmlns="http://www.w3.org/2000/svg">
<path fill-rule="evenodd" clip-rule="evenodd" d="M8.91279 0C11.2945 0 13.5333 0.935852 15.2173 2.63564C16.9016 4.33568 17.829 6.59608 17.829 8.99986C17.829 11.4039 16.9016 13.664 15.2173 15.3638C13.5331 17.0639 11.2937 18 8.91201 18C6.53032 18 4.29147 17.0641 2.60723 15.3641C-0.869294 11.8549 -0.869034 6.14507 2.60775 2.63617C4.292 0.936111 6.53111 0 8.91279 0ZM13.3094 5.68216C14.7634 7.64337 14.7634 10.3566 13.3094 12.3179L14.6326 13.6532C15.6861 12.339 16.2596 10.7139 16.2596 8.99988C16.2596 7.28557 15.6861 5.66077 14.6329 4.34625L13.3094 5.68216ZM6.13634 11.8024C4.60539 10.2571 4.60539 7.74292 6.13634 6.1976C6.878 5.44925 7.86401 5.03677 8.91253 5.03677C9.96106 5.03677 10.9471 5.44925 11.6887 6.1976C13.2197 7.74292 13.2197 10.2571 11.6887 11.8024C10.9471 12.5508 9.96106 12.9632 8.91253 12.9632C7.86401 12.9632 6.878 12.5508 6.13634 11.8024ZM12.1999 4.56174L13.5229 3.22635C12.2211 2.16296 10.6112 1.5844 8.91281 1.5844C7.2147 1.5844 5.60476 2.16322 4.30247 3.22662L5.62517 4.56174C6.56983 3.84586 7.71018 3.45293 8.91255 3.45293C10.1149 3.45293 11.2553 3.84586 12.1999 4.56174ZM3.19271 4.34677L4.51593 5.68242C3.06191 7.64363 3.06191 10.3569 4.51593 12.3181L3.19245 13.654C1.02868 10.9479 1.02868 7.05264 3.19271 4.34677ZM5.62515 13.4385L4.30219 14.7739C5.60448 15.8373 7.21391 16.4159 8.912 16.4159C10.6104 16.4159 12.2203 15.837 13.5226 14.7737L12.1999 13.4385C11.2552 14.1544 10.1149 14.5473 8.91253 14.5473C7.71017 14.5473 6.56983 14.1544 5.62515 13.4385Z" fill="#0025E4"/>
</svg>
